<svg width="914" height="554" viewBox="0 0 914 554" fill="none" xmlns="http://www.w3.org/2000/svg">
<g filter="url(#filter0_d_223_116)">
<rect x="28" y="28" width="858" height="498" rx="8" fill="#181818"/>
</g>
<rect x="361" y="30" width="206" height="15" rx="3" fill="#212121" stroke="#3B3B3B" stroke-width="0.5"/>
<path d="M445.664 41L444.256 35.16H444.912L446.072 40.12H446.088L447.288 35.64H448.104L449.304 40.12H449.32L450.48 35.16H451.136L449.728 41H448.92L447.704 36.52H447.688L446.472 41H445.664ZM452.135 41V35.16H455.847V35.736H452.775V37.64H455.687V38.208H452.775V40.424H455.847V41H452.135ZM457.174 41V35.16H458.886C459.627 35.16 460.179 35.2773 460.542 35.512C460.91 35.7413 461.094 36.0933 461.094 36.568C461.094 36.92 460.998 37.208 460.806 37.432C460.614 37.6507 460.339 37.8 459.982 37.88V37.896C460.446 37.9707 460.792 38.1307 461.022 38.376C461.251 38.6213 461.366 38.9547 461.366 39.376C461.366 39.9253 461.163 40.3333 460.758 40.6C460.352 40.8667 459.736 41 458.91 41H457.174ZM458.91 40.424C459.534 40.424 459.99 40.336 460.278 40.16C460.566 39.9787 460.71 39.696 460.71 39.312C460.71 38.928 460.563 38.648 460.27 38.472C459.982 38.2907 459.528 38.2 458.91 38.2H457.494V37.64H458.91C459.438 37.64 459.827 37.5627 460.078 37.408C460.328 37.248 460.454 37.0027 460.454 36.672C460.454 36.3467 460.331 36.1093 460.086 35.96C459.84 35.8107 459.448 35.736 458.91 35.736H457.814V40.424H458.91ZM467.4 41.504C467.298 41.504 467.168 41.4987 467.008 41.488C466.848 41.4827 466.669 41.4747 466.472 41.464C466.274 41.4533 466.074 41.44 465.872 41.424L465.856 40.864C466.048 40.88 466.237 40.8933 466.424 40.904C466.616 40.9147 466.789 40.9253 466.944 40.936C467.098 40.9413 467.218 40.944 467.304 40.944C467.442 40.944 467.541 40.9387 467.6 40.928C467.664 40.912 467.704 40.872 467.72 40.808C467.736 40.744 467.744 40.6347 467.744 40.48V35.52H464.728V34.96H469.392V35.52H468.368V40.496C468.368 40.7253 468.357 40.9067 468.336 41.04C468.314 41.1787 468.272 41.28 468.208 41.344C468.149 41.4133 468.053 41.456 467.92 41.472C467.792 41.4933 467.618 41.504 467.4 41.504ZM462.16 39.264L462.112 38.704C462.416 38.6453 462.728 38.576 463.048 38.496C463.368 38.416 463.68 38.328 463.984 38.232C464.293 38.136 464.584 38.0373 464.856 37.936L464.96 38.456C464.752 38.536 464.53 38.616 464.296 38.696C464.061 38.7707 463.821 38.8427 463.576 38.912C463.336 38.9813 463.096 39.048 462.856 39.112C462.616 39.1707 462.384 39.2213 462.16 39.264ZM463.136 41.584C463.045 41.584 462.917 41.5787 462.752 41.568C462.586 41.5627 462.402 41.5547 462.2 41.544L462.184 41.032C462.376 41.0427 462.549 41.0507 462.704 41.056C462.858 41.0613 462.976 41.064 463.056 41.064C463.12 41.064 463.165 41.056 463.192 41.04C463.224 41.0293 463.242 40.992 463.248 40.928C463.253 40.864 463.256 40.7547 463.256 40.6V36.48H462.12V35.952H463.256V34.544H463.872V35.952H464.92V36.48H463.872V40.576C463.872 40.8 463.864 40.9787 463.848 41.112C463.832 41.2507 463.8 41.352 463.752 41.416C463.704 41.4853 463.629 41.5307 463.528 41.552C463.432 41.5733 463.301 41.584 463.136 41.584Z" fill="#CCCCCC"/>
<circle cx="39" cy="38" r="4" fill="#ED6A5F"/>
<circle cx="53" cy="38" r="4" fill="#F4BF4E"/>
<circle cx="67" cy="38" r="4" fill="#61C454"/>
<path d="M54 64L886 64.0001" stroke="#181818"/>
<path d="M54 47L54 510" stroke="#181818"/>
<path d="M28 510H886" stroke="#181818"/>
<rect x="28" y="64" width="858" height="446" fill="#1F1F1F"/>
<path d="M28 47H885" stroke="#323232"/>
<path d="M28 510H885" stroke="#323232"/>
<path d="M413.52 520.44C413.936 519.96 414.288 519.539 414.576 519.176C414.864 518.808 415.093 518.483 415.264 518.2C415.44 517.912 415.565 517.651 415.64 517.416C415.72 517.176 415.76 516.944 415.76 516.72C415.76 516.357 415.68 516.091 415.52 515.92C415.36 515.744 415.112 515.656 414.776 515.656C414.573 515.656 414.371 515.68 414.168 515.728C413.965 515.776 413.749 515.853 413.52 515.96V515.36C413.931 515.173 414.392 515.08 414.904 515.08C415.427 515.08 415.811 515.208 416.056 515.464C416.307 515.72 416.432 516.117 416.432 516.656C416.432 516.907 416.395 517.165 416.32 517.432C416.245 517.699 416.125 517.981 415.96 518.28C415.8 518.579 415.589 518.904 415.328 519.256C415.067 519.603 414.752 519.987 414.384 520.408V520.44H416.48V521H413.52V520.44ZM419 518.472C418.829 518.472 418.693 518.421 418.592 518.32C418.491 518.219 418.44 518.085 418.44 517.92C418.44 517.749 418.491 517.616 418.592 517.52C418.693 517.419 418.829 517.368 419 517.368C419.171 517.368 419.307 517.419 419.408 517.52C419.509 517.616 419.56 517.749 419.56 517.92C419.56 518.085 419.509 518.219 419.408 518.32C419.307 518.421 419.171 518.472 419 518.472ZM419 521.08C418.589 521.08 418.261 520.992 418.016 520.816C417.771 520.635 417.592 520.341 417.48 519.936C417.373 519.531 417.32 518.992 417.32 518.32V517.84C417.32 517.163 417.373 516.624 417.48 516.224C417.592 515.819 417.771 515.528 418.016 515.352C418.261 515.171 418.589 515.08 419 515.08C419.411 515.08 419.739 515.171 419.984 515.352C420.229 515.528 420.405 515.819 420.512 516.224C420.624 516.624 420.68 517.163 420.68 517.84V518.32C420.68 518.992 420.624 519.531 420.512 519.936C420.405 520.341 420.229 520.635 419.984 520.816C419.739 520.992 419.411 521.08 419 521.08ZM419 520.504C419.267 520.504 419.472 520.44 419.616 520.312C419.765 520.179 419.869 519.952 419.928 519.632C419.992 519.307 420.024 518.856 420.024 518.28V517.88C420.024 517.304 419.992 516.856 419.928 516.536C419.869 516.211 419.765 515.984 419.616 515.856C419.472 515.723 419.267 515.656 419 515.656C418.739 515.656 418.533 515.723 418.384 515.856C418.235 515.984 418.128 516.211 418.064 516.536C418.005 516.856 417.976 517.304 417.976 517.88V518.28C417.976 518.856 418.005 519.307 418.064 519.632C418.128 519.952 418.235 520.179 418.384 520.312C418.533 520.44 418.739 520.504 419 520.504ZM421.52 520.44C421.936 519.96 422.288 519.539 422.576 519.176C422.864 518.808 423.093 518.483 423.264 518.2C423.44 517.912 423.565 517.651 423.64 517.416C423.72 517.176 423.76 516.944 423.76 516.72C423.76 516.357 423.68 516.091 423.52 515.92C423.36 515.744 423.112 515.656 422.776 515.656C422.573 515.656 422.371 515.68 422.168 515.728C421.965 515.776 421.749 515.853 421.52 515.96V515.36C421.931 515.173 422.392 515.08 422.904 515.08C423.427 515.08 423.811 515.208 424.056 515.464C424.307 515.72 424.432 516.117 424.432 516.656C424.432 516.907 424.395 517.165 424.32 517.432C424.245 517.699 424.125 517.981 423.96 518.28C423.8 518.579 423.589 518.904 423.328 519.256C423.067 519.603 422.752 519.987 422.384 520.408V520.44H424.48V521H421.52V520.44ZM427.504 521V519.84H425.12V519.28L427.504 515.16H428.16V519.28H428.88V519.84H428.16V521H427.504ZM425.856 519.296H427.504V516.472H427.472L425.856 519.264V519.296ZM436.888 519.912C436.632 519.912 436.405 519.864 436.208 519.768C436.016 519.672 435.867 519.531 435.76 519.344C435.653 519.152 435.6 518.912 435.6 518.624C435.6 518.304 435.643 518.005 435.728 517.728C435.819 517.445 435.944 517.2 436.104 516.992C436.264 516.784 436.453 516.621 436.672 516.504C436.896 516.387 437.141 516.328 437.408 516.328C437.563 516.328 437.712 516.341 437.856 516.368C438 516.395 438.136 516.437 438.264 516.496L438.104 516.968C437.992 516.915 437.88 516.875 437.768 516.848C437.656 516.821 437.539 516.808 437.416 516.808C437.181 516.808 436.971 516.888 436.784 517.048C436.597 517.208 436.451 517.424 436.344 517.696C436.237 517.968 436.184 518.275 436.184 518.616C436.184 518.877 436.251 519.08 436.384 519.224C436.517 519.368 436.704 519.44 436.944 519.44C437.067 519.44 437.197 519.424 437.336 519.392C437.475 519.355 437.621 519.301 437.776 519.232V519.704C437.643 519.773 437.501 519.827 437.352 519.864C437.203 519.896 437.048 519.912 436.888 519.912ZM437 521.44C436.547 521.44 436.12 521.355 435.72 521.184C435.32 521.013 434.968 520.779 434.664 520.48C434.365 520.176 434.131 519.824 433.96 519.424C433.789 519.024 433.704 518.597 433.704 518.144C433.704 517.685 433.789 517.259 433.96 516.864C434.131 516.464 434.365 516.115 434.664 515.816C434.968 515.512 435.32 515.275 435.72 515.104C436.12 514.933 436.547 514.848 437 514.848C437.459 514.848 437.885 514.933 438.28 515.104C438.68 515.275 439.029 515.512 439.328 515.816C439.632 516.115 439.869 516.464 440.04 516.864C440.211 517.259 440.296 517.685 440.296 518.144C440.296 518.597 440.211 519.024 440.04 519.424C439.869 519.824 439.632 520.176 439.328 520.48C439.029 520.779 438.68 521.013 438.28 521.184C437.885 521.355 437.459 521.44 437 521.44ZM437 520.992C437.395 520.992 437.763 520.92 438.104 520.776C438.451 520.627 438.755 520.421 439.016 520.16C439.277 519.899 439.48 519.597 439.624 519.256C439.773 518.909 439.848 518.539 439.848 518.144C439.848 517.749 439.773 517.381 439.624 517.04C439.48 516.693 439.277 516.389 439.016 516.128C438.755 515.867 438.451 515.664 438.104 515.52C437.763 515.371 437.395 515.296 437 515.296C436.605 515.296 436.235 515.371 435.888 515.52C435.547 515.664 435.245 515.867 434.984 516.128C434.723 516.389 434.517 516.693 434.368 517.04C434.224 517.381 434.152 517.749 434.152 518.144C434.152 518.539 434.224 518.909 434.368 519.256C434.517 519.597 434.723 519.899 434.984 520.16C435.245 520.421 435.547 520.627 435.888 520.776C436.235 520.92 436.605 520.992 437 520.992ZM446.152 514.712H446.752V517.048C446.752 518.392 446.64 520.352 445.784 521.656C445.672 521.552 445.408 521.4 445.256 521.336C446.08 520.088 446.152 518.32 446.152 517.048V514.712ZM446.544 514.712H452.048V516.672H446.544V516.136H451.448V515.248H446.544V514.712ZM446.936 517.56H452.536V518.112H446.936V517.56ZM447.672 520.824H451.624V521.36H447.672V520.824ZM449.312 516.632H449.904V519.248H449.312V516.632ZM447.392 519.048H451.944V521.624H451.344V519.584H447.976V521.64H447.392V519.048ZM453.856 514.704H455.832V520.312H453.856V519.768H455.272V515.24H453.856V514.704ZM453.912 516.368H455.632V516.896H453.912V516.368ZM453.912 518.056H455.632V518.576H453.912V518.056ZM453.584 514.704H454.144V520.984H453.584V514.704ZM456.904 514.656H460.424V516.92H456.904V516.368H459.84V515.192H456.904V514.656ZM456.888 518.072H460.664V518.632H456.888V518.072ZM456.56 514.656H457.136V521.096H456.56V514.656ZM455.768 520.968C456.52 520.848 457.648 520.648 458.752 520.448L458.8 520.968C457.792 521.184 456.728 521.384 455.936 521.544L455.768 520.968ZM458.376 516.68H458.968C458.984 519.168 459.552 521.04 460.128 521.04C460.288 521.032 460.352 520.664 460.376 519.872C460.504 519.992 460.704 520.104 460.856 520.16C460.776 521.288 460.568 521.608 460.088 521.608C459.04 521.6 458.456 519.392 458.376 516.68ZM463.704 514.688C463.536 515.28 463.384 516.36 463.336 516.92C463.664 516.096 464.496 515.096 465.512 515.096C466.568 515.096 467.336 516.168 467.336 517.848C467.336 520.064 465.936 521.048 463.96 521.408L463.576 520.832C465.32 520.568 466.672 519.864 466.672 517.856C466.672 516.592 466.248 515.68 465.408 515.68C464.408 515.68 463.48 517.136 463.384 518.184C463.344 518.488 463.344 518.768 463.4 519.168L462.776 519.216C462.736 518.912 462.696 518.464 462.696 517.944C462.696 517.184 462.848 516.008 462.944 515.352C462.976 515.112 462.992 514.888 463.008 514.664L463.704 514.688ZM474.56 515.68C474.56 516.256 474.56 517.024 474.56 517.528C474.56 518.536 474.664 519.648 474.664 520.288C474.664 520.936 474.216 521.32 473.352 521.32C472.472 521.32 471.816 520.952 471.816 520.2C471.816 519.632 472.288 519.096 473.344 519.096C474.76 519.096 475.736 519.792 476.328 520.328L475.992 520.888C475.232 520.104 474.272 519.576 473.328 519.576C472.76 519.576 472.384 519.816 472.384 520.16C472.384 520.56 472.744 520.76 473.296 520.76C473.928 520.76 474.08 520.44 474.08 520.016C474.08 519.56 473.984 518.376 473.984 517.552C473.984 516.984 473.984 516.12 473.984 515.68H474.56ZM472.056 517.24C473.496 517.352 474.96 517.248 476.056 517.12V517.704C475.032 517.824 473.488 517.904 472.056 517.824V517.24ZM472.176 515.384C473.464 515.48 474.688 515.416 475.592 515.296V515.856C474.704 515.944 473.472 516.008 472.176 515.944V515.384ZM470.808 515.056C470.76 515.192 470.688 515.44 470.664 515.584C470.504 516.328 470.28 517.88 470.28 518.776C470.28 519.168 470.304 519.512 470.352 519.904C470.48 519.536 470.672 519.032 470.816 518.712L471.144 518.976C470.944 519.52 470.656 520.352 470.576 520.736C470.552 520.848 470.528 521 470.536 521.096C470.536 521.176 470.552 521.288 470.56 521.376L469.992 521.416C469.824 520.848 469.688 519.968 469.688 518.888C469.688 517.712 469.952 516.216 470.048 515.56C470.072 515.376 470.096 515.16 470.096 514.992L470.808 515.056ZM475.552 514.72C475.696 515.008 475.912 515.512 476.024 515.832L475.624 515.968C475.504 515.624 475.32 515.144 475.168 514.84L475.552 514.72ZM476.352 514.464C476.504 514.76 476.72 515.256 476.84 515.576L476.44 515.712C476.312 515.36 476.128 514.896 475.968 514.592L476.352 514.464ZM477.808 517.536C478.056 517.56 478.472 517.584 478.928 517.584C479.512 517.584 482.72 517.584 483.312 517.584C483.712 517.584 483.992 517.552 484.176 517.536V518.32C484.008 518.312 483.672 518.288 483.32 518.288C482.712 518.288 479.52 518.288 478.928 518.288C478.488 518.288 478.064 518.304 477.808 518.32V517.536ZM486.784 515.424C486.744 515.608 486.72 515.992 486.712 516.2C486.704 516.696 486.712 517.432 486.768 518.088C486.904 519.424 487.288 520.312 487.864 520.312C488.272 520.312 488.648 519.488 488.856 518.688L489.36 519.256C488.872 520.608 488.392 521.072 487.848 521.072C487.088 521.072 486.368 520.32 486.144 518.248C486.072 517.56 486.056 516.584 486.056 516.12C486.056 515.936 486.056 515.592 486.008 515.408L486.784 515.424ZM490.944 515.64C491.664 516.568 492.24 518.272 492.36 519.624L491.712 519.88C491.576 518.44 491.088 516.792 490.328 515.856L490.944 515.64ZM497.784 514.76C497.768 514.848 497.744 515.16 497.744 515.264C497.728 515.776 497.744 517.32 497.752 517.96L497.144 517.648C497.144 517.296 497.136 515.712 497.112 515.264C497.096 515.048 497.072 514.824 497.056 514.76H497.784ZM493.536 515.872C494.624 515.856 496.624 515.784 497.856 515.784C498.832 515.784 499.816 515.784 500.2 515.792L500.192 516.384C499.736 516.36 499.016 516.344 497.848 516.344C496.472 516.344 494.752 516.4 493.552 516.488L493.536 515.872ZM497.736 518.192C497.736 519.264 497.24 519.8 496.504 519.8C495.832 519.8 495.192 519.328 495.192 518.456C495.192 517.664 495.84 517.072 496.6 517.072C497.536 517.072 498.008 517.76 498.008 518.688C498.008 519.768 497.48 520.968 495.616 521.52L495.08 521C496.544 520.664 497.392 519.944 497.392 518.624C497.392 517.904 497.04 517.6 496.6 517.6C496.184 517.6 495.792 517.928 495.792 518.448C495.792 518.952 496.168 519.248 496.6 519.248C497.104 519.248 497.424 518.824 497.296 517.976L497.736 518.192ZM498.888 514.592C499.072 514.864 499.328 515.264 499.488 515.56L499.032 515.76C498.864 515.44 498.64 515.056 498.44 514.784L498.888 514.592ZM499.856 514.384C500.04 514.656 500.288 515.04 500.456 515.344L500.008 515.552C499.832 515.216 499.616 514.848 499.408 514.576L499.856 514.384Z" fill="#CCCCCC"/>
<defs>
<filter id="filter0_d_223_116" x="0" y="0" width="914" height="554" filterUnits="userSpaceOnUse" color-interpolation-filters="sRGB">
<feFlood flood-opacity="0" result="BackgroundImageFix"/>
<feColorMatrix in="SourceAlpha" type="matrix" values="0 0 0 0 0 0 0 0 0 0 0 0 0 0 0 0 0 0 127 0" result="hardAlpha"/>
<feMorphology radius="8" operator="dilate" in="SourceAlpha" result="effect1_dropShadow_223_116"/>
<feOffset/>
<feGaussianBlur stdDeviation="10"/>
<feComposite in2="hardAlpha" operator="out"/>
<feColorMatrix type="matrix" values="0 0 0 0 0 0 0 0 0 0 0 0 0 0 0 0 0 0 0.5 0"/>
<feBlend mode="normal" in2="BackgroundImageFix" result="effect1_dropShadow_223_116"/>
<feBlend mode="normal" in="SourceGraphic" in2="effect1_dropShadow_223_116" result="shape"/>
</filter>
</defs>
</svg>
