<svg width="177" height="68" viewBox="0 0 177 68" fill="none" xmlns="http://www.w3.org/2000/svg">
<path d="M5.4 61L0.72 8.44H6.624L9.504 53.584H9.792L13.536 15.64H22.464L26.208 53.584H26.496L29.376 8.44H35.28L30.6 61H22.248L18.144 22.264H17.856L13.752 61H5.4ZM41.832 61V8.44H67.032V13.48H47.664V30.688H66.312V35.728H47.664V55.96H67.032V61H41.832ZM87.264 61.72C86.064 61.72 84.528 61.648 82.656 61.504C80.832 61.408 78.84 61.192 76.68 60.856V8.584C78.888 8.248 80.88 8.032 82.656 7.936C84.48 7.792 86.016 7.72 87.264 7.72C92.928 7.72 97.152 8.824 99.936 11.032C102.72 13.24 104.112 16.576 104.112 21.04C104.112 23.968 103.512 26.416 102.312 28.384C101.112 30.352 99.336 31.792 96.984 32.704V32.992C99.864 33.808 102 35.272 103.392 37.384C104.784 39.496 105.48 42.328 105.48 45.88C105.48 51.112 103.944 55.072 100.872 57.76C97.848 60.4 93.312 61.72 87.264 61.72ZM81 55.6C82.248 55.936 83.424 56.176 84.528 56.32C85.632 56.464 86.76 56.536 87.912 56.536C91.896 56.536 94.824 55.672 96.696 53.944C98.616 52.168 99.576 49.48 99.576 45.88C99.576 42.28 98.616 39.688 96.696 38.104C94.824 36.472 91.824 35.656 87.696 35.656H79.56V30.76H87.12C90.912 30.76 93.72 30.016 95.544 28.528C97.368 26.992 98.28 24.664 98.28 21.544C98.28 18.568 97.44 16.384 95.76 14.992C94.08 13.6 91.464 12.904 87.912 12.904C86.76 12.904 85.608 12.976 84.456 13.12C83.304 13.264 82.152 13.504 81 13.84L82.44 11.536V57.904L81 55.6ZM119.448 0.807998L122.832 3.184L115.992 11.032V57.184L122.832 65.104L119.448 67.48L111.744 58.48V9.808L119.448 0.807998ZM168.48 0.807998L176.184 9.808V58.48L168.48 67.48L165.096 65.104L171.792 57.184V11.032L165.096 3.184L168.48 0.807998ZM121.32 38.752C126.36 37.456 133.776 35.152 141.192 32.92L141.84 37.384C135.072 39.544 128.088 41.848 122.544 43.576L121.32 38.752ZM158.832 56.104C158.832 59.056 158.184 60.496 156.24 61.36C154.224 62.152 150.984 62.296 146.088 62.296C145.872 60.856 145.224 58.768 144.504 57.328C148.176 57.4 151.56 57.4 152.64 57.4C153.648 57.328 153.936 57.04 153.936 56.104V13.408H158.832V56.104ZM134.352 56.536C134.352 59.128 133.92 60.496 132.336 61.288C130.824 62.08 128.304 62.224 124.776 62.152C124.632 60.928 123.984 58.912 123.408 57.544C125.856 57.616 128.232 57.616 128.952 57.544C129.744 57.544 129.96 57.328 129.96 56.536V5.92H134.352V56.536ZM167.112 11.536V16.432H140.616V11.536H167.112ZM141.336 18.304V22.984H122.184V18.304H141.336Z" fill="#CCCCCC"/>
</svg>
